<?xml version="1.0" standalone="no"?>
<!DOCTYPE svg PUBLIC "-//W3C//DTD SVG 20010904//EN"
 "http://www.w3.org/TR/2001/REC-SVG-20010904/DTD/svg10.dtd">
<svg version="1.0" xmlns="http://www.w3.org/2000/svg"
 width="183.000000pt" height="239.000000pt" viewBox="0 0 183.000000 239.000000"
 preserveAspectRatio="xMidYMid meet">
<metadata>
Created by potrace 1.16, written by Peter Selinger 2001-2019
</metadata>
<g transform="translate(0.000000,239.000000) scale(0.100000,-0.100000)"
fill="#000000" stroke="none">
<path d="M900 2095 c-224 -46 -401 -177 -493 -365 -65 -132 -81 -200 -81 -340
1 -206 41 -298 220 -515 63 -77 184 -228 269 -335 84 -107 166 -208 182 -223
34 -31 37 -30 72 40 31 62 36 113 17 170 -16 49 -193 292 -398 548 -101 126
-127 184 -135 296 -22 307 264 558 564 495 103 -21 179 -61 248 -131 153 -153
187 -363 90 -554 -40 -79 -127 -165 -207 -206 -82 -41 -89 -42 -113 -15 -22
24 -16 31 44 54 343 133 353 608 16 757 -189 84 -427 2 -522 -178 -81 -155
-66 -314 45 -460 88 -114 366 -458 382 -470 30 -24 64 -12 208 74 254 152 358
275 417 499 23 88 21 251 -5 344 -102 361 -462 588 -820 515z m204 -568 c73
-42 99 -140 53 -208 -28 -43 -106 -83 -145 -75 -77 18 -132 81 -132 155 0 115
123 186 224 128z"/>
</g>
</svg>
